# xmcd
#
# Track frame offsets:
#	150
#	14415
#	28854
#	44953
#	60045
#	76248
#	89627
#	107787
#	131021
#	147204
#	162072
#	177275
#	193333
#	210396
#	221628
#	237748
#	253357
#	270049
#	284475
#	298987
#
# Disc length: 4177 seconds
#
# Revision: 1
# Processed by: cddbd v1.5.2PL0 Copyright (c) Steve Scherf et al.
# Submitted via: audiograbber 1.83.01
#
DISCID=39104f14
DTITLE=Bellamy Brothers - 40 Years (The Album)(CD 1)
DYEAR=2015
DGENRE=Country
TTITLE0=Let Your Love Flow
TTITLE1=If I Said You Have A Beautiful Body (Would You Hold It Against Me)
TTITLE2=I Need More Of You
TTITLE3=Redneck Girl
TTITLE4=Sugar Daddy
TTITLE5=Do You Love As Good As You Look
TTITLE6=Old Hippie
TTITLE7=You Ain't Just Whistlin' Dixie (Live)
TTITLE8=Crossfire
TTITLE9=Lovers Live Longer
TTITLE10=Dancin' Cowboys
TTITLE11=Crazy From The Heart
TTITLE12=When I'm Away From You
TTITLE13=Country Rap
TTITLE14=Feelin' The Feelin'
TTITLE15=I'd Lie To You For Your Love
TTITLE16=For All The Long Reasons
TTITLE17=Get Into Reggae Cowboy
TTITLE18=Kids Of The Baby Boom
TTITLE19=Jalapenos
EXTD=
EXTT0=
EXTT1=
EXTT2=
EXTT3=
EXTT4=
EXTT5=
EXTT6=
EXTT7=
EXTT8=
EXTT9=
EXTT10=
EXTT11=
EXTT12=
EXTT13=
EXTT14=
EXTT15=
EXTT16=
EXTT17=
EXTT18=
EXTT19=
PLAYORDER=
